<svg width="272" height="74" viewBox="0 0 272 74" fill="none" xmlns="http://www.w3.org/2000/svg">
<path d="M23.3 73.3C18.3 73.3 13.9 72.3667 10.1 70.5C6.3 68.6333 3.1 66.1667 0.5 63.1L6.9 56.6C9.5 59.3333 12.1667 61.3333 14.9 62.6C17.6333 63.8667 20.5667 64.5 23.7 64.5C28.0333 64.5 31.4333 63.4667 33.9 61.4C36.3667 59.2667 37.6 56.5333 37.6 53.2C37.6 50.7333 36.9333 48.7333 35.6 47.2C34.3333 45.6667 32.6333 44.4333 30.5 43.5C28.4333 42.5667 26.1333 41.7333 23.6 41C21.0667 40.2667 18.5333 39.5 16 38.7C13.4667 37.8333 11.1333 36.7333 9 35.4C6.93333 34 5.23333 32.2 3.9 30C2.63333 27.7333 2 24.9 2 21.5C2 17.2333 2.96667 13.5667 4.9 10.5C6.9 7.36666 9.7 4.96666 13.3 3.3C16.9 1.56666 21.1 0.699994 25.9 0.699994C30.2333 0.699994 34.1333 1.46666 37.6 2.99999C41.1333 4.46666 44 6.46666 46.2 8.99999L39.6 15.7C37.6 13.6333 35.5 12.1 33.3 11.1C31.1 10.0333 28.6 9.5 25.8 9.5C21.7333 9.5 18.4667 10.5333 16 12.6C13.5333 14.6 12.3 17.2333 12.3 20.5C12.3 22.8333 12.9333 24.7333 14.2 26.2C15.5333 27.6 17.2667 28.7 19.4 29.5C21.5333 30.3 23.8667 31.0333 26.4 31.7C29 32.3667 31.5667 33.1333 34.1 34C36.7 34.8 39.0333 35.9 41.1 37.3C43.2333 38.7 44.9333 40.5667 46.2 42.9C47.5333 45.1667 48.2 48.1 48.2 51.7C48.2 56.1 47.1333 59.9333 45 63.2C42.9333 66.4 40.0333 68.9 36.3 70.7C32.5667 72.4333 28.2333 73.3 23.3 73.3ZM72.6109 72V6.4H83.1109V72H72.6109ZM52.1109 11.5V2H103.811V11.5H52.1109ZM138.403 36.1H134.203L155.403 2H166.803L141.503 42.7V72H131.103V42.7L105.803 2H117.103L138.403 36.1ZM186.81 72C183.543 72 180.81 70.9333 178.61 68.8C176.477 66.6 175.41 63.8667 175.41 60.6V2H185.81V57.7C185.81 58.9667 186.243 60.0333 187.11 60.9C187.977 61.7667 189.043 62.2 190.31 62.2H218.41V72H186.81ZM238.268 72C234.935 72 232.201 70.9333 230.068 68.8C227.935 66.6 226.868 63.8667 226.868 60.6V13.4C226.868 10.1333 227.935 7.43333 230.068 5.29999C232.201 3.09999 234.935 2 238.268 2H271.368V11.5H241.568C240.301 11.5 239.235 11.9333 238.368 12.8C237.568 13.6667 237.168 14.7333 237.168 16V58C237.168 59.2667 237.568 60.3333 238.368 61.2C239.235 62.0667 240.301 62.5 241.568 62.5H271.368V72H238.268ZM231.968 41.4V32.3H269.268V41.4H231.968Z" fill="white"/>
</svg>
